# xmcd
#
# Track frame offsets: 
#        150
#        29415
#        53247
#        74021
#        95597
#        108974
#        134314
#        153038
#        167170
#        188163
#        207643
#        230130
#        253031
#        275991
#        300304
#        315509
#
# Disc length: 4476 seconds
#
# Revision: 0
# Processed by: cddbd v1.5.2PL0 Copyright (c) Steve Scherf et al.
# Submitted via: ExactAudioCopy v1.3
#
DISCID=ea117a10
DTITLE=Billy Paul - Me and Mrs Jones (The Anthology) [CD1 - People Po
DTITLE=wer)
DYEAR=2019
DGENRE=Soul
TTITLE0=Your Song
TTITLE1=Am I Black Enough For You
TTITLE2=Brown Baby
TTITLE3=The Whole Town's Talking
TTITLE4=Thanks For Saving My Life
TTITLE5=Only The Strong Survive
TTITLE6=How Good Is Your Game
TTITLE7=Be Truthful To Me
TTITLE8=False Faces
TTITLE9=People Power
TTITLE10=Let The Dollar Circulate
TTITLE11=Bring The Family Back
TTITLE12=Let 'Em In
TTITLE13=America (We Need The Light)
TTITLE14=We All Got A Mission
TTITLE15=New Day, New World Comin'
EXTD=
EXTT0=
EXTT1=
EXTT2=
EXTT3=
EXTT4=
EXTT5=
EXTT6=
EXTT7=
EXTT8=
EXTT9=
EXTT10=
EXTT11=
EXTT12=
EXTT13=
EXTT14=
EXTT15=
PLAYORDER=
